<svg width="40" height="41" viewBox="0 0 40 41" fill="none" xmlns="http://www.w3.org/2000/svg">
<path d="M18.333 29.1984L21.6663 32.5318C21.9946 32.8601 22.3844 33.1205 22.8134 33.2982C23.2423 33.4759 23.702 33.5673 24.1663 33.5673C24.6306 33.5673 25.0904 33.4759 25.5193 33.2982C25.9483 33.1205 26.338 32.8601 26.6663 32.5318C26.9946 32.2035 27.2551 31.8137 27.4327 31.3848C27.6104 30.9558 27.7019 30.4961 27.7019 30.0318C27.7019 29.5675 27.6104 29.1077 27.4327 28.6788C27.2551 28.2498 26.9946 27.8601 26.6663 27.5318" stroke="white" stroke-width="2" stroke-linecap="round" stroke-linejoin="round"/>
<path d="M23.3337 24.1984L27.5004 28.3651C28.1634 29.0281 29.0627 29.4006 30.0004 29.4006C30.9381 29.4006 31.8373 29.0281 32.5004 28.3651C33.1634 27.7021 33.5359 26.8028 33.5359 25.8651C33.5359 24.9274 33.1634 24.0281 32.5004 23.3651L26.0337 16.8984C25.0962 15.9621 23.8254 15.4362 22.5004 15.4362C21.1754 15.4362 19.9045 15.9621 18.967 16.8984L17.5004 18.3651C16.8373 19.0281 15.9381 19.4006 15.0004 19.4006C14.0627 19.4006 13.1634 19.0281 12.5004 18.3651C11.8373 17.7021 11.4648 16.8028 11.4648 15.8651C11.4648 14.9274 11.8373 14.0281 12.5004 13.3651L17.1837 8.68176C18.7041 7.16534 20.6869 6.19935 22.8181 5.93672C24.9494 5.67409 27.1073 6.12982 28.9504 7.23176L29.7337 7.69843C30.4434 8.12674 31.2871 8.27529 32.1004 8.1151L35.0004 7.53176" stroke="white" stroke-width="2" stroke-linecap="round" stroke-linejoin="round"/>
<path d="M34.9997 5.86511L36.6663 24.1984H33.333" stroke="white" stroke-width="2" stroke-linecap="round" stroke-linejoin="round"/>
<path d="M4.99967 5.86511L3.33301 24.1984L14.1663 35.0318C14.8294 35.6948 15.7287 36.0673 16.6663 36.0673C17.604 36.0673 18.5033 35.6948 19.1663 35.0318C19.8294 34.3687 20.2019 33.4695 20.2019 32.5318C20.2019 31.5941 19.8294 30.6948 19.1663 30.0318" stroke="white" stroke-width="2" stroke-linecap="round" stroke-linejoin="round"/>
<path d="M5 7.5318H18.3333" stroke="white" stroke-width="2" stroke-linecap="round" stroke-linejoin="round"/>
</svg>
